<svg id="Capa_1" enable-background="new 0 0 512.184 512.184" height="512" viewBox="0 0 512.184 512.184" width="512" xmlns="http://www.w3.org/2000/svg"><g><path d="m407.078 419.762h-301.972l-79.998-79.998v-126.725h461.968v126.725z" fill="#f9b700"/><path d="m256.092 213.039v206.723h150.986l79.998-79.998v-126.725z" fill="#f49d14"/><g><circle cx="111.319" cy="404.782" fill="#f9ecd7" r="71.21"/><path d="m172.279 343.823c-16.283-16.283-37.932-25.251-60.96-25.251s-44.677 8.968-60.96 25.25c-16.283 16.283-25.25 37.932-25.25 60.96s8.967 44.677 25.25 60.96c16.807 16.806 38.883 25.209 60.96 25.209s44.153-8.403 60.959-25.21c16.283-16.283 25.251-37.932 25.251-60.96s-8.967-44.675-25.25-60.958zm-4.749 60.959c0 9.872-2.543 19.349-7.293 27.705l-27.705-27.705 27.705-27.705c4.75 8.357 7.293 17.833 7.293 27.705zm-28.506-48.917-27.705 27.705-27.705-27.705c8.356-4.75 17.833-7.293 27.705-7.293 9.873 0 19.349 2.543 27.705 7.293zm-76.623 76.622c-4.75-8.356-7.293-17.833-7.293-27.705s2.543-19.349 7.292-27.705l27.705 27.705zm21.226 21.2 27.692-27.692 27.692 27.692c-17.119 9.687-38.264 9.686-55.384 0z" fill="#ce7000"/></g><g><circle cx="400.866" cy="404.782" fill="#f5d7b0" r="71.21"/><path d="m461.826 343.823c-16.283-16.283-37.932-25.251-60.96-25.251s-44.677 8.968-60.96 25.25c-16.283 16.283-25.25 37.932-25.25 60.96s8.967 44.677 25.25 60.96c16.807 16.806 38.883 25.209 60.96 25.209s44.153-8.403 60.959-25.21c16.283-16.283 25.251-37.932 25.251-60.96s-8.968-44.675-25.25-60.958zm-4.75 60.959c0 9.872-2.543 19.349-7.293 27.705l-27.705-27.705 27.705-27.705c4.75 8.357 7.293 17.833 7.293 27.705zm-28.506-48.917-27.705 27.705-27.705-27.705c8.356-4.75 17.833-7.293 27.705-7.293 9.873 0 19.349 2.543 27.705 7.293zm-76.622 76.622c-4.75-8.356-7.293-17.833-7.293-27.705s2.543-19.349 7.292-27.705l27.705 27.705zm21.226 21.2 27.692-27.692 27.692 27.692c-17.12 9.687-38.265 9.686-55.384 0z" fill="#823c08"/></g><path d="m401.262 21.232-72.585 41.907-72.585-41.907-72.585 41.907-72.585-41.907-72.585 41.907v83.814l72.585 41.906 72.585-41.906 72.585 41.906 72.585-41.906 72.585 41.906 72.585-41.906v-83.814z" fill="#f9ecd7"/><path d="m256.092 188.859-72.585-41.906v-83.814l72.585-41.907 72.585 41.907v83.813z" fill="#fee46f"/><path d="m256.092 21.232v167.627l72.585-41.906v-83.814z" fill="#fed330"/><path d="m401.262 188.859-72.585-41.906v-83.814l72.585-41.907 72.585 41.907v83.813z" fill="#fee46f"/><path d="m401.262 21.232v167.627l72.585-41.906v-83.814z" fill="#fed330"/><path d="m110.922 188.859-72.585-41.906v-83.814l72.585-41.907 72.585 41.907v83.813z" fill="#fee46f"/><path d="m110.922 21.232v167.627l72.585-41.906v-83.814z" fill="#fed330"/><g><g><path d="m512.184 228.039h-512.184v-104.731h512.184z" fill="#ce7000"/></g></g><path d="m256.092 123.308h256.092v104.731h-256.092z" fill="#823c08"/><path d="m210.426 276.102h91.333v30h-91.333z" fill="#ce7000"/><path d="m256.092 276.102h45.667v30h-45.667z" fill="#823c08"/></g></svg>